# Blender 4.0.1
# www.blender.org
mtllib GarbageBag_01.mtl
o Plane
v -0.683532 -0.618814 0.974838
v 0.683532 -0.618814 0.974838
v -0.683532 -0.618814 -0.974838
v 0.683532 -0.618814 -0.974838
v -0.468852 1.004724 -0.695377
v -0.468852 1.004724 0.695377
v 0.468852 1.004724 0.695377
v 0.468852 1.004724 -0.695377
v 0.910965 0.544324 -1.074169
v 0.910965 0.544324 1.074169
v -0.910965 0.544324 1.074169
v -0.910965 0.544324 -1.074169
v 0.000000 -0.927082 -1.342469
v 0.000000 -0.927082 1.342469
v -0.291112 1.173186 -0.291112
v -0.291112 1.173186 0.291112
v 0.291112 1.173186 0.291112
v 0.291112 1.173186 -0.291112
v -0.142399 1.240806 -0.142399
v -0.142399 1.240806 0.142399
v 0.142399 1.240806 0.142399
v 0.142399 1.240806 -0.142399
v -0.054568 1.256290 -0.054568
v -0.054568 1.256290 0.054568
v 0.054568 1.256290 0.054568
v 0.054568 1.256290 -0.054568
v -0.091539 1.285668 -0.091539
v -0.091539 1.285668 0.091539
v 0.091539 1.285668 0.091539
v 0.091539 1.285668 -0.091539
v -0.091539 1.449748 -0.091539
v -0.091539 1.449748 0.091539
v 0.091539 1.449748 0.091539
v 0.091539 1.449748 -0.091539
v -0.056941 1.469416 -0.056941
v -0.056941 1.469416 0.056941
v 0.056941 1.469416 0.056941
v 0.056941 1.469416 -0.056941
v -0.956504 -0.618814 0.000000
v 0.956504 -0.618814 0.000000
v -0.582039 1.004724 0.000000
v 0.582039 1.004724 0.000000
v -1.130884 0.544324 0.000000
v 1.130884 0.544324 0.000000
v 0.000000 -0.927082 0.000000
v -0.361391 1.173186 0.000000
v 0.361391 1.173186 0.000000
v -0.176776 1.240806 0.000000
v 0.176776 1.240806 0.000000
v -0.067741 1.256290 0.000000
v 0.067741 1.256290 0.000000
v -0.113638 1.285668 0.000000
v 0.113638 1.285668 0.000000
v -0.113638 1.449748 0.000000
v 0.113638 1.449748 0.000000
v -0.070687 1.469416 0.000000
v 0.070687 1.469416 0.000000
v 0.000000 -0.927082 0.671234
v 0.326251 1.173186 0.145556
v 0.820018 -0.618814 0.487419
v -1.020924 0.544324 0.537085
v 1.020924 0.544324 0.537085
v 0.159587 1.240806 0.071199
v 0.525445 1.004724 0.347689
v -0.159587 1.240806 0.071199
v -0.525445 1.004724 0.347689
v -0.326251 1.173186 0.145556
v -0.820018 -0.618814 0.487419
v -0.159587 1.240806 -0.071199
v 0.525445 1.004724 -0.347689
v 0.326251 1.173186 -0.145556
v 0.820018 -0.618814 -0.487419
v -0.326251 1.173186 -0.145556
v -0.820018 -0.618814 -0.487419
v -1.020924 0.544324 -0.537085
v 0.000000 -0.927082 -0.671234
v -0.525445 1.004724 -0.347689
v 0.159587 1.240806 -0.071199
v 1.020924 0.544324 -0.537085
v 0.000000 -0.618814 0.974838
v 0.000000 -0.618814 -0.974838
v 0.000000 1.004724 0.695377
v 0.000000 1.004724 -0.695377
v 0.000000 0.544324 1.074169
v 0.000000 0.544324 -1.074169
v 0.000000 1.173186 0.291112
v 0.000000 1.173186 -0.291112
v 0.000000 1.240806 0.142399
v 0.000000 1.240806 -0.142399
v 0.000000 1.256290 0.054568
v 0.000000 1.256290 -0.054568
v 0.000000 1.285668 0.091539
v 0.000000 1.285668 -0.091539
v 0.000000 1.449748 0.091539
v 0.000000 1.449748 -0.091539
v 0.000000 1.469416 0.056941
v 0.000000 1.469416 -0.056941
v 0.000000 1.469416 0.000000
v -0.234426 1.004724 0.695377
v -0.455483 0.544324 1.074169
v -0.071199 1.240806 0.142399
v -0.341766 -0.618814 0.974838
v -0.145556 1.173186 0.291112
v 0.071199 1.240806 0.142399
v 0.234426 1.004724 0.695377
v 0.455483 0.544324 1.074169
v 0.341766 -0.618814 0.974838
v 0.145556 1.173186 0.291112
v 0.071199 1.240806 -0.142399
v 0.145556 1.173186 -0.291112
v 0.341766 -0.618814 -0.974838
v 0.234426 1.004724 -0.695377
v 0.455483 0.544324 -1.074169
v -0.341766 -0.618814 -0.974838
v -0.455483 0.544324 -1.074169
v -0.071199 1.240806 -0.142399
v -0.234426 1.004724 -0.695377
v -0.145556 1.173186 -0.291112
v -0.091539 1.367708 -0.091539
v 0.091539 1.367708 -0.091539
v 0.091539 1.367708 0.091539
v -0.091539 1.367708 0.091539
v -0.113638 1.367708 0.000000
v 0.113638 1.367708 0.000000
v 0.000000 1.367708 0.091539
v 0.000000 1.367708 -0.091539
v 0.797249 -0.037245 1.024503
v -0.797249 -0.037245 -1.024503
v 0.797249 -0.037245 -1.024503
v -0.797249 -0.037245 1.024503
v 1.043694 -0.037245 0.000000
v -1.043694 -0.037245 0.000000
v -0.920471 -0.037245 0.512252
v 0.920471 -0.037245 0.512252
v -0.920471 -0.037245 -0.512252
v 0.920471 -0.037245 -0.512252
v 0.000000 -0.037245 -1.024503
v 0.000000 -0.037245 1.024503
v -0.398624 -0.037245 1.024503
v 0.398624 -0.037245 1.024503
v 0.398624 -0.037245 -1.024503
v -0.398624 -0.037245 -1.024503
v -0.341766 -0.772948 -1.158653
v -0.341766 -0.772948 1.158653
v -0.478252 -0.772948 0.000000
v -0.410009 -0.772948 0.579327
v -0.410009 -0.772948 -0.579327
v 0.341766 -0.772948 1.158653
v 0.341766 -0.772948 -1.158653
v 0.478252 -0.772948 0.000000
v 0.410009 -0.772948 0.579327
v 0.410009 -0.772948 -0.579327
v -0.170883 -0.772948 1.158653
v 0.170883 -0.772948 1.158653
v 0.000000 -0.772948 1.158653
v 0.000000 -0.772948 -1.158653
v -0.170883 -0.772948 -1.158653
v 0.170883 -0.772948 -1.158653
v 0.689909 0.774524 -0.884773
v -0.689909 0.774524 0.884773
v 0.689909 0.774524 0.884773
v -0.689909 0.774524 -0.884773
v -0.856461 0.774524 0.000000
v 0.856461 0.774524 0.000000
v -0.773185 0.774524 0.442387
v 0.773185 0.774524 0.442387
v -0.773185 0.774524 -0.442387
v 0.773185 0.774524 -0.442387
v 0.000000 0.774524 0.884773
v 0.000000 0.774524 -0.884773
v -0.344954 0.774524 0.884773
v 0.344954 0.774524 0.884773
v 0.344954 0.774524 -0.884773
v -0.344954 0.774524 -0.884773
v 0.854107 0.253540 -1.049336
v -0.854107 0.253540 1.049336
v 1.087289 0.253540 0.000000
v -1.087289 0.253540 0.000000
v -0.970698 0.253540 0.524668
v 0.970698 0.253540 -0.524668
v 0.000000 0.253540 -1.049336
v 0.000000 0.253540 1.049336
v 0.427053 0.253540 1.049336
v -0.427053 0.253540 -1.049336
v 0.854107 0.253540 1.049336
v -0.854107 0.253540 -1.049336
v 0.970698 0.253540 0.524668
v -0.970698 0.253540 -0.524668
v -0.427053 0.253540 1.049336
v 0.427053 0.253540 -1.049336
v 0.740391 -0.328030 0.999671
v -0.740391 -0.328030 -0.999671
v 0.870245 -0.328030 0.499835
v -0.870245 -0.328030 -0.499835
v -0.370195 -0.328030 0.999671
v 0.370195 -0.328030 -0.999671
v 0.740391 -0.328030 -0.999671
v -0.740391 -0.328030 0.999671
v 1.000099 -0.328030 0.000000
v -1.000099 -0.328030 0.000000
v -0.870245 -0.328030 0.499835
v 0.870245 -0.328030 -0.499835
v 0.000000 -0.328030 -0.999671
v 0.000000 -0.328030 0.999671
v 0.370195 -0.328030 0.999671
v -0.370195 -0.328030 -0.999671
v -0.512649 -0.695881 1.066745
v 0.512649 -0.695881 -1.066745
v -0.615014 -0.695881 0.533373
v 0.615014 -0.695881 -0.533373
v 0.256325 -0.695881 1.066745
v -0.256325 -0.695881 -1.066745
v -0.512649 -0.695881 -1.066745
v -0.717378 -0.695881 0.000000
v -0.615014 -0.695881 -0.533373
v 0.512649 -0.695881 1.066745
v 0.717378 -0.695881 0.000000
v 0.615014 -0.695881 0.533373
v -0.256325 -0.695881 1.066745
v 0.000000 -0.695881 1.066745
v 0.000000 -0.695881 -1.066745
v 0.256325 -0.695881 -1.066745
v 0.170883 -0.850015 1.250561
v 0.239126 -0.850015 0.000000
v 0.205005 -0.850015 0.625281
v 0.170883 -0.850015 -1.250561
v 0.205005 -0.850015 -0.625281
vn 0.3286 -0.9444 0.0086
vn -0.0000 0.9231 -0.3847
vn 0.6453 0.7553 -0.1142
vn -0.6453 0.7553 0.1142
vn -0.0000 0.6353 -0.7722
vn -0.0000 0.6353 0.7722
vn -0.0000 -0.0851 0.9964
vn -0.0000 -0.0851 -0.9964
vn -0.9654 -0.1601 0.2060
vn 0.9654 -0.1601 -0.2060
vn -0.3295 -0.9440 -0.0180
vn -0.0000 0.7663 -0.6425
vn -0.0000 0.7663 0.6425
vn -0.0000 0.9103 -0.4139
vn -0.0000 0.9231 0.3847
vn 0.5895 0.8003 -0.1096
vn -0.5895 0.8003 0.1096
vn 0.1405 0.9895 -0.0339
vn -0.0000 0.9103 0.4139
vn 0.3428 0.9358 -0.0827
vn -0.3428 0.9358 0.0827
vn 0.5346 -0.8352 -0.1291
vn -0.1405 0.9895 0.0339
vn -0.0000 0.9848 -0.1736
vn -0.0000 0.9848 0.1736
vn -0.0000 -0.0000 -1.0000
vn -0.5346 -0.8352 0.1291
vn -0.0000 -0.7829 -0.6221
vn -0.0000 -0.7829 0.6221
vn 0.4143 0.9046 -0.1000
vn -0.0000 -0.0000 1.0000
vn 0.9721 -0.0000 -0.2347
vn -0.9721 -0.0000 0.2347
vn -0.0000 1.0000 -0.0000
vn -0.4143 0.9046 0.1000
vn -0.0000 0.8694 -0.4942
vn -0.0000 0.8694 0.4942
vn -0.4143 0.9046 -0.1000
vn -0.9721 -0.0000 -0.2347
vn 0.9721 -0.0000 0.2347
vn 0.4143 0.9046 0.1000
vn -0.5346 -0.8352 -0.1291
vn -0.1405 0.9895 -0.0339
vn 0.5346 -0.8352 0.1291
vn -0.3428 0.9358 -0.0827
vn 0.3428 0.9358 0.0827
vn 0.1405 0.9895 0.0339
vn -0.5637 0.8193 -0.1048
vn 0.5637 0.8193 0.1048
vn -0.3859 -0.9223 0.0211
vn 0.9602 -0.1899 0.2049
vn -0.9602 -0.1899 -0.2049
vn -0.6590 0.7430 -0.1167
vn 0.6590 0.7430 0.1167
vn 0.3825 -0.9239 -0.0101
vn -0.6539 0.7455 0.1290
vn -0.3341 -0.9393 0.0782
vn 0.6430 0.7553 0.1268
vn 0.4074 -0.9083 0.0953
vn -0.9477 -0.1909 0.2557
vn 0.5895 0.8003 0.1096
vn 0.9532 -0.1593 0.2571
vn -0.5637 0.8193 0.1048
vn -0.9532 -0.1593 -0.2571
vn 0.5637 0.8193 -0.1048
vn -0.6430 0.7553 -0.1268
vn 0.9477 -0.1909 -0.2557
vn 0.6539 0.7455 -0.1290
vn -0.4074 -0.9083 -0.0953
vn -0.5895 0.8003 -0.1096
vn 0.3341 -0.9393 -0.0782
vn 0.9565 -0.1903 -0.2212
vn -0.9617 -0.1599 -0.2224
vn 0.9617 -0.1599 0.2224
vn -0.9565 -0.1903 0.2212
vn -0.9523 -0.1906 -0.2381
vn 0.9523 -0.1906 0.2381
vn 0.9577 -0.1596 -0.2395
vn -0.9577 -0.1596 0.2395
vn -0.3859 -0.9223 -0.0211
vn -0.3295 -0.9440 0.0180
vn -0.3978 -0.9155 0.0610
vn -0.3321 -0.9419 -0.0509
vn 0.3303 -0.9434 -0.0281
vn 0.3896 -0.9204 0.0331
vn 0.3978 -0.9155 -0.0610
vn 0.3321 -0.9419 0.0509
vn 0.6590 0.7430 -0.1167
vn -0.6453 0.7553 -0.1142
vn 0.6453 0.7553 0.1142
vn -0.6590 0.7430 0.1167
vn 0.6539 0.7455 0.1290
vn -0.6539 0.7455 -0.1290
vn -0.6430 0.7553 0.1268
vn 0.6430 0.7553 -0.1268
vn -0.9602 -0.1899 0.2049
vn 0.9654 -0.1601 0.2060
vn -0.9654 -0.1601 -0.2060
vn 0.9602 -0.1899 -0.2049
vn -0.9565 -0.1903 -0.2212
vn 0.9565 -0.1903 0.2212
vn 0.9617 -0.1599 -0.2224
vn -0.9617 -0.1599 0.2224
vn -0.9532 -0.1593 0.2571
vn 0.9532 -0.1593 -0.2571
vn 0.9477 -0.1909 0.2557
vn -0.9477 -0.1909 -0.2557
vn 0.9523 -0.1906 -0.2381
vn -0.9577 -0.1596 -0.2395
vn 0.9577 -0.1596 0.2395
vn -0.9523 -0.1906 0.2381
vn 0.3341 -0.9393 0.0782
vn 0.4074 -0.9083 -0.0953
vn -0.3341 -0.9393 -0.0782
vn -0.4074 -0.9083 0.0953
vn 0.3321 -0.9419 -0.0509
vn -0.3978 -0.9155 -0.0610
vn 0.3978 -0.9155 0.0610
vn -0.3321 -0.9419 0.0509
vn 0.3825 -0.9239 0.0101
vn 0.3286 -0.9444 -0.0086
vn 0.3896 -0.9204 -0.0331
vn 0.3303 -0.9434 0.0281
vt 1.000000 0.500000
vt 1.000000 0.250000
vt 1.000000 0.250000
vt 0.500000 1.000000
vt 0.250000 1.000000
vt 1.000000 0.750000
vt 0.000000 0.500000
vt 0.000000 0.250000
vt 0.250000 1.000000
vt 0.500000 0.000000
vt 0.750000 0.000000
vt 0.750000 0.000000
vt 0.000000 0.750000
vt 0.000000 0.750000
vt 0.000000 1.000000
vt 0.187500 1.000000
vt 0.125000 1.000000
vt 1.000000 0.000000
vt 0.812500 0.000000
vt 0.875000 0.000000
vt 1.000000 1.000000
vt 0.000000 0.000000
vt 0.500000 0.500000
vt 0.000000 1.000000
vt 0.000000 0.750000
vt 1.000000 0.000000
vt 1.000000 1.000000
vt 1.000000 1.000000
vt 1.000000 1.000000
vt 0.250000 0.000000
vt 0.750000 1.000000
vt 0.750000 1.000000
vt 0.625000 0.000000
vt 0.750000 0.000000
vt 0.375000 1.000000
vt 0.250000 1.000000
vt 0.625000 0.000000
vt 0.437500 0.000000
vt 0.562500 1.000000
vt 0.375000 1.000000
s 0
usemtl GarbageBag
f 224/1/1 225/2/1 58/3/1 45/1/1
f 83/4/2 117/5/2 118/5/2 87/4/2
f 164/1/3 168/6/3 70/6/3 42/1/3
f 163/7/4 165/8/4 66/8/4 41/7/4
f 170/4/5 174/9/5 117/5/5 83/4/5
f 169/10/6 172/11/6 105/11/6 82/10/6
f 182/10/7 183/12/7 106/11/7 84/10/7
f 181/4/8 184/5/8 115/5/8 85/4/8
f 178/7/9 179/8/9 61/8/9 43/7/9
f 177/1/10 180/6/10 79/6/10 44/1/10
f 145/7/11 147/13/11 76/14/11 45/7/11
f 213/15/12 212/16/12 157/17/12 143/15/12
f 216/18/13 211/19/13 154/20/13 148/18/13
f 87/4/14 118/5/14 116/5/14 89/4/14
f 82/10/15 105/11/15 108/11/15 86/10/15
f 42/1/16 70/6/16 71/6/16 47/1/16
f 41/7/17 66/8/17 67/8/17 46/7/17
f 49/1/18 78/6/18 51/1/18
f 86/10/19 108/11/19 104/11/19 88/10/19
f 47/1/20 71/6/20 78/6/20 49/1/20
f 46/7/21 67/8/21 65/8/21 48/7/21
f 51/1/22 26/21/22 30/21/22 53/1/22
f 48/7/23 65/8/23 50/7/23
f 89/4/24 116/5/24 91/4/24
f 88/10/25 104/11/25 90/10/25
f 126/4/26 119/15/26 31/15/26 95/4/26
f 50/7/27 24/22/27 28/22/27 52/7/27
f 91/4/28 23/15/28 27/15/28 93/4/28
f 90/10/29 25/18/29 29/18/29 92/10/29
f 55/1/30 34/21/30 38/21/30 57/1/30
f 125/10/31 121/18/31 33/18/31 94/10/31
f 124/1/32 120/21/32 34/21/32 55/1/32
f 123/7/33 122/22/33 32/22/33 54/7/33
f 98/23/34 57/1/34 38/21/34 97/4/34
f 54/7/35 32/22/35 36/22/35 56/7/35
f 95/4/36 31/15/36 35/15/36 97/4/36
f 94/10/37 33/18/37 37/18/37 96/10/37
f 31/15/38 54/7/38 56/7/38 35/15/38
f 96/10/34 37/18/34 57/1/34 98/23/34
f 119/15/39 123/7/39 54/7/39 31/15/39
f 121/18/40 124/1/40 55/1/40 33/18/40
f 33/18/41 55/1/41 57/1/41 37/18/41
f 23/15/42 50/7/42 52/7/42 27/15/42
f 19/15/43 69/14/43 50/7/43 23/15/43
f 25/18/44 51/1/44 53/1/44 29/18/44
f 15/15/45 73/14/45 69/14/45 19/15/45
f 17/18/46 59/3/46 63/3/46 21/18/46
f 21/18/47 63/3/47 51/1/47 25/18/47
f 5/15/48 77/14/48 73/14/48 15/15/48
f 7/18/49 64/3/49 59/3/49 17/18/49
f 144/22/50 146/8/50 58/8/50 14/22/50
f 185/18/51 187/3/51 62/3/51 10/18/51
f 186/15/52 188/13/52 75/14/52 12/15/52
f 162/24/53 167/25/53 77/14/53 5/15/53
f 161/26/54 166/2/54 64/3/54 7/18/54
f 226/27/55 227/6/55 76/6/55 13/21/55
f 36/22/34 96/10/34 98/23/34 56/7/34
f 165/8/56 61/8/56 11/22/56 160/22/56
f 63/3/46 59/3/46 47/1/46 49/1/46
f 209/8/57 68/8/57 39/7/57 214/7/57
f 166/2/58 62/3/58 44/1/58 164/1/58
f 218/3/59 60/3/59 2/18/59 216/18/59
f 201/8/60 68/8/60 1/22/60 198/22/60
f 51/1/47 63/3/47 49/1/47
f 59/3/61 64/3/61 42/1/61 47/1/61
f 193/3/62 60/3/62 40/1/62 199/1/62
f 67/8/63 66/8/63 6/22/63 16/22/63
f 65/8/21 67/8/21 16/22/21 20/22/21
f 50/7/23 65/8/23 20/22/23 24/22/23
f 50/7/43 69/14/43 48/7/43
f 69/14/45 73/14/45 46/7/45 48/7/45
f 194/14/64 74/14/64 39/7/64 200/7/64
f 71/6/65 70/6/65 8/21/65 18/21/65
f 167/25/66 75/14/66 43/7/66 163/7/66
f 202/6/67 72/6/67 4/21/67 197/28/67
f 168/6/68 79/6/68 9/21/68 159/29/68
f 215/14/69 74/14/69 3/15/69 213/15/69
f 51/1/18 78/6/18 22/21/18 26/21/18
f 78/6/20 71/6/20 18/21/20 22/21/20
f 73/14/70 77/14/70 41/7/70 46/7/70
f 210/6/71 72/6/71 40/1/71 217/1/71
f 32/22/37 94/10/37 96/10/37 36/22/37
f 34/21/36 95/4/36 97/4/36 38/21/36
f 56/7/34 98/23/34 97/4/34 35/15/34
f 122/22/31 125/10/31 94/10/31 32/22/31
f 24/22/29 90/10/29 92/10/29 28/22/29
f 26/21/28 91/4/28 93/4/28 30/21/28
f 120/21/26 126/4/26 95/4/26 34/21/26
f 20/22/25 101/30/25 90/10/25 24/22/25
f 22/21/24 109/31/24 91/4/24 26/21/24
f 16/22/19 103/30/19 101/30/19 20/22/19
f 6/22/15 99/30/15 103/30/15 16/22/15
f 18/21/14 110/31/14 109/31/14 22/21/14
f 175/21/8 190/32/8 113/31/8 9/21/8
f 176/22/7 189/30/7 100/30/7 11/22/7
f 160/22/6 171/30/6 99/30/6 6/22/6
f 159/29/5 173/31/5 112/31/5 8/21/5
f 8/21/2 112/31/2 110/31/2 18/21/2
f 101/30/19 103/30/19 86/10/19 88/10/19
f 14/18/13 153/33/13 144/10/13
f 195/30/7 102/30/7 80/10/7 204/10/7
f 103/30/15 99/30/15 82/10/15 86/10/15
f 90/10/25 101/30/25 88/10/25
f 171/30/6 100/30/6 84/10/6 169/10/6
f 14/18/13 155/34/13 153/33/13
f 104/11/19 108/11/19 17/18/19 21/18/19
f 172/11/6 106/11/6 10/18/6 161/26/6
f 14/18/13 154/20/13 155/34/13
f 205/11/7 107/11/7 2/18/7 191/26/7
f 90/10/25 104/11/25 21/18/25 25/18/25
f 108/11/15 105/11/15 7/18/15 17/18/15
f 109/31/14 110/31/14 87/4/14 89/4/14
f 91/4/24 109/31/24 89/4/24
f 173/31/5 113/31/5 85/4/5 170/4/5
f 196/31/8 111/31/8 81/4/8 203/4/8
f 13/15/12 158/35/12 149/4/12 226/5/12
f 110/31/2 112/31/2 83/4/2 87/4/2
f 13/15/12 156/36/12 158/35/12
f 13/15/12 157/17/12 156/36/12
f 118/5/2 117/5/2 5/15/2 15/15/2
f 116/5/14 118/5/14 15/15/14 19/15/14
f 206/5/8 114/5/8 3/15/8 192/24/8
f 174/9/5 115/5/5 12/15/5 162/24/5
f 91/4/24 116/5/24 19/15/24 23/15/24
f 30/21/26 93/4/26 126/4/26 120/21/26
f 28/22/31 92/10/31 125/10/31 122/22/31
f 29/18/40 53/1/40 124/1/40 121/18/40
f 27/15/39 52/7/39 123/7/39 119/15/39
f 52/7/33 28/22/33 122/22/33 123/7/33
f 53/1/32 30/21/32 120/21/32 124/1/32
f 92/10/31 29/18/31 121/18/31 125/10/31
f 93/4/26 27/15/26 119/15/26 126/4/26
f 184/5/8 142/5/8 128/15/8 186/15/8
f 190/32/8 141/31/8 137/4/8 181/4/8
f 183/12/7 140/11/7 127/18/7 185/18/7
f 189/30/7 139/30/7 138/10/7 182/10/7
f 198/22/7 195/30/7 139/30/7 130/22/7
f 197/28/8 196/31/8 141/31/8 129/28/8
f 180/6/72 136/6/72 129/28/72 175/21/72
f 188/13/73 135/14/73 132/7/73 178/7/73
f 187/3/74 134/3/74 131/1/74 177/1/74
f 179/8/75 133/8/75 130/22/75 176/22/75
f 192/24/76 194/14/76 135/14/76 128/15/76
f 191/26/77 193/3/77 134/3/77 127/18/77
f 199/1/78 202/6/78 136/6/78 131/1/78
f 200/7/79 201/8/79 133/8/79 132/7/79
f 203/4/8 206/5/8 142/5/8 137/4/8
f 204/10/7 205/11/7 140/11/7 138/10/7
f 76/14/80 147/13/80 143/15/80 13/15/80
f 58/8/81 146/8/81 145/7/81 45/7/81
f 207/22/82 209/8/82 146/8/82 144/22/82
f 214/7/83 215/14/83 147/13/83 145/7/83
f 227/6/84 152/6/84 150/1/84 224/1/84
f 225/2/85 151/3/85 148/18/85 223/18/85
f 208/27/86 210/6/86 152/6/86 149/27/86
f 217/1/87 218/3/87 151/3/87 150/1/87
f 220/37/13 211/19/13 107/11/13 80/10/13
f 148/18/13 154/20/13 14/18/13 223/18/13
f 219/38/13 220/37/13 80/10/13 102/30/13
f 207/30/13 219/38/13 102/30/13 1/22/13
f 143/15/12 157/17/12 13/15/12
f 222/39/12 221/40/12 81/4/12 111/31/12
f 221/40/12 212/16/12 114/5/12 81/4/12
f 208/31/12 222/39/12 111/31/12 4/21/12
f 117/5/5 174/9/5 162/24/5 5/15/5
f 112/31/5 173/31/5 170/4/5 83/4/5
f 105/11/6 172/11/6 161/26/6 7/18/6
f 99/30/6 171/30/6 169/10/6 82/10/6
f 9/21/5 113/31/5 173/31/5 159/29/5
f 11/22/6 100/30/6 171/30/6 160/22/6
f 70/6/88 168/6/88 159/29/88 8/21/88
f 77/14/89 167/25/89 163/7/89 41/7/89
f 64/3/90 166/2/90 164/1/90 42/1/90
f 66/8/91 165/8/91 160/22/91 6/22/91
f 10/18/92 62/3/92 166/2/92 161/26/92
f 12/15/93 75/14/93 167/25/93 162/24/93
f 84/10/6 106/11/6 172/11/6 169/10/6
f 85/4/5 115/5/5 174/9/5 170/4/5
f 43/7/94 61/8/94 165/8/94 163/7/94
f 44/1/95 79/6/95 168/6/95 164/1/95
f 61/8/96 179/8/96 176/22/96 11/22/96
f 62/3/97 187/3/97 177/1/97 44/1/97
f 75/14/98 188/13/98 178/7/98 43/7/98
f 79/6/99 180/6/99 175/21/99 9/21/99
f 100/30/7 189/30/7 182/10/7 84/10/7
f 106/11/7 183/12/7 185/18/7 10/18/7
f 113/31/8 190/32/8 181/4/8 85/4/8
f 115/5/8 184/5/8 186/15/8 12/15/8
f 130/22/7 139/30/7 189/30/7 176/22/7
f 129/28/8 141/31/8 190/32/8 175/21/8
f 128/15/100 135/14/100 188/13/100 186/15/100
f 127/18/101 134/3/101 187/3/101 185/18/101
f 131/1/102 136/6/102 180/6/102 177/1/102
f 132/7/103 133/8/103 179/8/103 178/7/103
f 137/4/8 142/5/8 184/5/8 181/4/8
f 138/10/7 140/11/7 183/12/7 182/10/7
f 80/10/7 107/11/7 205/11/7 204/10/7
f 81/4/8 114/5/8 206/5/8 203/4/8
f 39/7/104 68/8/104 201/8/104 200/7/104
f 40/1/105 72/6/105 202/6/105 199/1/105
f 2/18/106 60/3/106 193/3/106 191/26/106
f 3/15/107 74/14/107 194/14/107 192/24/107
f 4/21/8 111/31/8 196/31/8 197/28/8
f 1/22/7 102/30/7 195/30/7 198/22/7
f 142/5/8 206/5/8 192/24/8 128/15/8
f 141/31/8 196/31/8 203/4/8 137/4/8
f 140/11/7 205/11/7 191/26/7 127/18/7
f 139/30/7 195/30/7 204/10/7 138/10/7
f 136/6/108 202/6/108 197/28/108 129/28/108
f 135/14/109 194/14/109 200/7/109 132/7/109
f 134/3/110 193/3/110 199/1/110 131/1/110
f 133/8/111 201/8/111 198/22/111 130/22/111
f 149/4/12 158/35/12 222/39/12 208/31/12
f 156/36/12 157/17/12 212/16/12 221/40/12
f 158/35/12 156/36/12 221/40/12 222/39/12
f 144/10/13 153/33/13 219/38/13 207/30/13
f 153/33/13 155/34/13 220/37/13 219/38/13
f 155/34/13 154/20/13 211/19/13 220/37/13
f 40/1/112 60/3/112 218/3/112 217/1/112
f 4/21/113 72/6/113 210/6/113 208/27/113
f 39/7/114 74/14/114 215/14/114 214/7/114
f 1/22/115 68/8/115 209/8/115 207/22/115
f 152/6/116 210/6/116 217/1/116 150/1/116
f 147/13/117 215/14/117 213/15/117 143/15/117
f 151/3/118 218/3/118 216/18/118 148/18/118
f 146/8/119 209/8/119 214/7/119 145/7/119
f 2/18/13 107/11/13 211/19/13 216/18/13
f 3/15/12 114/5/12 212/16/12 213/15/12
f 58/3/120 225/2/120 223/18/120 14/18/120
f 76/6/121 227/6/121 224/1/121 45/1/121
f 149/27/122 152/6/122 227/6/122 226/27/122
f 150/1/123 151/3/123 225/2/123 224/1/123
